<?xml version="1.0" encoding="utf-8"?>
<!-- Generator: Adobe Illustrator 21.0.0, SVG Export Plug-In . SVG Version: 6.00 Build 0)  -->
<svg version="1.1" id="Ebene_1" xmlns="http://www.w3.org/2000/svg" xmlns:xlink="http://www.w3.org/1999/xlink" x="0px" y="0px"
	 viewBox="0 0 283.5 283.5" style="enable-background:new 0 0 283.5 283.5;" xml:space="preserve">
<style type="text/css">
	.st0{fill:#FFFFFF;}
</style>
<path class="st0" d="M82.3,113.5"/>
<g>
	<path d="M131.9,106.1h6c3.3,0,4.8,2.4,4.8,4.8c0,2.4-1.5,4.7-4.8,4.7H135v5h-3.1V106.1z M135,108.8v4.1h2.7c1.2,0,1.8-1.1,1.8-2
		c0-0.9-0.6-2-1.7-2H135z"/>
	<path d="M151.3,105.9c4.1,0,7.4,3.3,7.4,7.4c0,4.1-3.2,7.4-7.4,7.4c-4.1,0-7.3-3.3-7.3-7.4C144,109.2,147.2,105.9,151.3,105.9z
		 M151.3,117.7c2.4,0,4.3-2,4.3-4.4c0-2.4-1.9-4.4-4.3-4.4c-2.4,0-4.3,2-4.3,4.4C147,115.8,148.9,117.7,151.3,117.7z"/>
	<path d="M173.8,117.6c-1.3,1.9-3.5,3.2-6.1,3.2c-4.1,0-7.3-3.3-7.3-7.4c0-4.1,3.1-7.4,7.3-7.4c2.6,0,4.8,1.2,6,3.1l-2.5,1.7
		c-0.8-1.1-2-1.9-3.5-1.9c-2.4,0-4.2,2-4.2,4.5c0,2.5,1.8,4.5,4.2,4.5c1.5,0,2.8-0.8,3.6-2L173.8,117.6z"/>
	<path d="M187.4,120.6h-4l-4.4-4.9v4.9h-3.1v-14.5h3.1v4.8l3.4-4.8h3.6l-5.5,7.2L187.4,120.6z"/>
	<path d="M188.8,106.1h9.2v2.7h-6.1v3.3h5.3v2.7h-5.3v3.1h6.3v2.7h-9.4V106.1z"/>
	<path d="M199.8,106.1h10.9v2.8h-3.9v11.7h-3.1v-11.7h-3.9V106.1z"/>
	<path d="M141.7,129.2c-0.8-0.9-1.9-1.5-3.2-1.5c-2.4,0-4.3,2.1-4.3,4.6c0,2.5,1.9,4.6,4.3,4.6c1.6,0,3.5-1,3.5-2.5h-3.9v-2.5h7.4
		c0,5.4-2.9,7.8-7.1,7.8c-4.2,0-7.4-3.3-7.4-7.4c0-4.1,3.3-7.4,7.4-7.4c2.2,0,4.2,0.9,5.4,2.4L141.7,129.2z"/>
	<path d="M158.5,139.5h-3.7l-3.2-5h-0.7v5h-3.1V125h5.9c3.3,0,4.8,2.4,4.8,4.8c0,2.1-1.1,4.1-3.6,4.6L158.5,139.5z M150.9,127.7v4.1
		h2.6c1.2,0,1.8-1.1,1.8-2c0-0.9-0.6-2-1.7-2H150.9z"/>
	<path d="M167.7,124.8c4.1,0,7.4,3.3,7.4,7.4c0,4.1-3.2,7.4-7.4,7.4c-4.1,0-7.3-3.3-7.3-7.4C160.4,128.1,163.6,124.8,167.7,124.8z
		 M167.7,136.6c2.4,0,4.3-2,4.3-4.4s-1.9-4.4-4.3-4.4c-2.4,0-4.3,2-4.3,4.4S165.3,136.6,167.7,136.6z"/>
	<path d="M185.6,134.3V125h3.1v9.3c0,3.3-2.6,5.4-5.6,5.4c-3,0-5.6-2.1-5.6-5.4V125h3.1v9.3c0,1.5,1.2,2.5,2.5,2.5
		C184.4,136.8,185.6,135.8,185.6,134.3z"/>
	<path d="M202.9,139.5h-2.8l-5-8.8v8.8H192V125h2.8l5,8.7V125h3.1V139.5z"/>
	<path d="M206.3,139.5V125h5.7c4.2,0,6.5,3.2,6.5,7.3c0,4.1-2.4,7.2-6.5,7.2H206.3z M209.3,136.7h2.6c2.3,0,3.5-2,3.5-4.4
		c0-2.4-1.2-4.5-3.5-4.5h-2.6V136.7z"/>
	<path d="M134.2,154.2c0,0.9,0.8,1.7,2.2,1.7c1.2,0,2.1-0.6,2.1-1.5c0-0.7-0.3-1.2-1.7-1.6l-1.7-0.5c-3.2-1-3.7-2.9-3.7-4.2
		c0-2.6,2.2-4.3,5-4.3c2.8,0,4.9,1.7,4.9,4.4h-3.1c0-1-0.7-1.6-1.9-1.6c-1.1,0-1.9,0.6-1.9,1.5c0,0.4,0.1,1.1,1.6,1.5l1.7,0.5
		c3.5,1,4,3,4,4.4c0,2.9-2.7,4.3-5.2,4.3c-3.2,0-5.3-1.9-5.3-4.5H134.2z"/>
	<path d="M142.9,143.9h10.9v2.8h-3.9v11.7h-3.1v-11.7h-3.9V143.9z"/>
	<path d="M157.7,155l-1.3,3.4h-3.3l5.4-14.5h3.3l5.4,14.5H164l-1.3-3.4H157.7z M161.7,152.3l-1.5-5.1l-1.5,5.1H161.7z"/>
	<path d="M166.6,143.9h10.9v2.8h-3.9v11.7h-3.1v-11.7h-3.9V143.9z"/>
	<path d="M182.9,143.9v14.5h-3.1v-14.5H182.9z"/>
	<path d="M192.8,143.8c4.1,0,7.4,3.3,7.4,7.4c0,4.1-3.2,7.4-7.4,7.4c-4.1,0-7.3-3.3-7.3-7.4C185.4,147.1,188.7,143.8,192.8,143.8z
		 M192.8,155.6c2.4,0,4.3-2,4.3-4.4s-1.9-4.4-4.3-4.4c-2.4,0-4.3,2-4.3,4.4S190.4,155.6,192.8,155.6z"/>
	<path d="M213.6,158.4h-2.8l-5-8.8v8.8h-3.1v-14.5h2.8l5,8.7v-8.7h3.1V158.4z"/>
</g>
<g>
	<path d="M116.2,118.2c-0.5-0.2-3.3-1.3-7.5-2.4l3.9-19.3c0.3-1.5-0.7-3-2.2-3.3l-23.9-4.9c-1.5-0.3-3,0.7-3.3,2.2l-4.9,24.1
		c-6.5,1.4-11.1,3.3-11.8,3.6c-1,0.4-0.9,1.4-0.9,1.4s2.2,33.4,2.3,33.9c0.1,0.6,1.1,1.1,8.1,5.7c7,4.5,12.9,6.2,15.3,6.2
		c0.1,0,0,0,0.1,0c0.1,0,0,0,0.1,0c2.4,0,8.3-1.7,15.3-6.2c7-4.5,8-5.1,8.1-5.7c0.1-0.6,2.3-33.9,2.3-33.9S117.2,118.6,116.2,118.2z
		 M102,101.5c0.3-1.2,1.5-2.1,2.7-1.8c1.2,0.3,2.1,1.5,1.8,2.7c-0.3,1.2-1.5,2.1-2.7,1.8C102.5,104,101.7,102.8,102,101.5z
		 M94.3,99.9c0.3-1.2,1.5-2.1,2.7-1.8c1.2,0.3,2.1,1.5,1.8,2.7c-0.3,1.2-1.5,2.1-2.7,1.8C94.8,102.4,94,101.2,94.3,99.9z M86.6,98.4
		c0.3-1.2,1.5-2.1,2.7-1.8c1.2,0.3,2.1,1.5,1.8,2.7c-0.3,1.2-1.5,2.1-2.7,1.8C87.1,100.8,86.3,99.6,86.6,98.4z M86.7,108.2
		c0.2-1,1.2-1.7,2.3-1.5l12.2,2.5c1,0.2,1.7,1.2,1.5,2.3l-2.3,11.2c-2.4,0.2-4.8,0.4-7.6,0.4c-3.4,0-6.4-0.2-9-0.5L86.7,108.2z
		 M112,152.1c-0.3,0.6-11.2,7.1-14.2,8.5c-2.4,1.2-5.1,1.5-6.1,1.6v0c0,0-0.2,0-0.3,0c-0.1,0-0.3,0-0.3,0v0
		c-1.1-0.1-3.8-0.5-6.1-1.6c-3-1.5-13.9-7.9-14.2-8.5s-2-29.9-2-29.9s5.1,2,10.6,2.8c5.3,0.8,10.5,1,11.8,1c0,0,0.2,0,0.3,0
		c0,0,0.3,0,0.3,0c1.2,0,6.5-0.2,11.8-1c5.5-0.8,10.6-2.8,10.6-2.8S112.3,151.5,112,152.1z"/>
	<g>
		<path d="M72.8,129.6c-0.5,0-1-0.4-1-0.9l-0.1-1.5c0-0.6,0.4-1,0.9-1.1c0.5,0,1,0.4,1.1,0.9l0.1,1.5
			C73.8,129.1,73.4,129.5,72.8,129.6C72.8,129.6,72.8,129.6,72.8,129.6z"/>
		<path d="M84.7,157.8c-0.2,0-0.3,0-0.5-0.1c-0.8-0.4-1.8-1-2.8-1.5c-0.5-0.3-0.7-0.9-0.4-1.4c0.3-0.5,0.9-0.7,1.4-0.4
			c1,0.6,2,1.1,2.8,1.5c0.5,0.3,0.7,0.9,0.4,1.3C85.4,157.6,85.1,157.8,84.7,157.8z M77.2,153.6c-0.2,0-0.3,0-0.5-0.1
			c-1.5-0.9-2.4-1.5-2.8-1.8c-0.4-0.3-0.5-1-0.2-1.4c0.3-0.4,1-0.5,1.4-0.2c0.2,0.1,0.7,0.5,2.6,1.6c0.5,0.3,0.6,0.9,0.4,1.4
			C77.9,153.4,77.6,153.6,77.2,153.6z M73.9,146.6c-0.5,0-1-0.4-1-0.9c-0.1-1-0.1-2.1-0.2-3.2c0-0.6,0.4-1,0.9-1.1
			c0.6,0,1,0.4,1.1,0.9c0.1,1.1,0.2,2.2,0.2,3.2C74.9,146.1,74.5,146.6,73.9,146.6C74,146.6,73.9,146.6,73.9,146.6z M73.3,138.1
			c-0.5,0-1-0.4-1-0.9l-0.2-3.2c0-0.6,0.4-1,0.9-1.1c0.6,0,1,0.4,1.1,0.9l0.2,3.2C74.4,137.6,73.9,138.1,73.3,138.1
			C73.4,138.1,73.3,138.1,73.3,138.1z"/>
		<path d="M91.2,159.8c-0.1,0-0.2,0-0.4-0.1c-0.3,0-0.8-0.1-1.3-0.2c-0.5-0.1-0.9-0.6-0.8-1.2c0.1-0.5,0.6-0.9,1.2-0.8
			c0.6,0.1,1.1,0.2,1.4,0.2c0,0,0.1,0,0.1,0c0,0,0,0,0,0c0,0,0.1,0,0.1,0c0.3,0,0.8-0.1,1.4-0.2c0.5-0.1,1.1,0.3,1.2,0.8
			c0.1,0.5-0.3,1.1-0.8,1.2c-0.5,0.1-1,0.2-1.3,0.2c-0.1,0-0.3,0.1-0.4,0.1l-0.1,0L91.2,159.8C91.2,159.8,91.2,159.8,91.2,159.8z"/>
		<path d="M98.1,157.8c-0.4,0-0.7-0.2-0.9-0.5c-0.3-0.5-0.1-1.1,0.4-1.3c0.8-0.4,1.8-1,2.8-1.5c0.5-0.3,1.1-0.1,1.4,0.4
			c0.3,0.5,0.1,1.1-0.4,1.4c-1,0.6-2,1.1-2.8,1.5C98.4,157.7,98.2,157.8,98.1,157.8z M105.6,153.6c-0.3,0-0.7-0.2-0.9-0.5
			c-0.3-0.5-0.1-1.1,0.4-1.4c1.9-1.1,2.5-1.5,2.6-1.6c0.4-0.3,1.1-0.3,1.4,0.2c0.3,0.4,0.3,1.1-0.2,1.4c-0.4,0.3-1.3,0.9-2.8,1.8
			C105.9,153.5,105.7,153.6,105.6,153.6z M108.9,146.6C108.8,146.6,108.8,146.6,108.9,146.6c-0.6,0-1-0.5-1-1.1
			c0.1-1,0.1-2.1,0.2-3.2c0-0.6,0.5-1,1.1-0.9c0.6,0,1,0.5,0.9,1.1c-0.1,1.1-0.2,2.2-0.2,3.2C109.8,146.2,109.4,146.6,108.9,146.6z
			 M109.4,138.1C109.4,138.1,109.4,138.1,109.4,138.1c-0.6,0-1-0.5-1-1.1l0.2-3.2c0-0.6,0.5-1,1.1-0.9c0.6,0,1,0.5,0.9,1.1l-0.2,3.2
			C110.4,137.6,110,138.1,109.4,138.1z"/>
		<path d="M110,129.6C110,129.6,109.9,129.6,110,129.6c-0.6,0-1-0.5-1-1.1l0.1-1.5c0-0.6,0.5-1,1.1-0.9c0.6,0,1,0.5,0.9,1.1
			l-0.1,1.5C110.9,129.2,110.5,129.6,110,129.6z"/>
	</g>
</g>
</svg>
