<?xml version="1.0" encoding="utf-8"?>
<!-- Generator: Adobe Illustrator 22.0.1, SVG Export Plug-In . SVG Version: 6.00 Build 0)  -->
<svg version="1.1" id="Ebene_6" xmlns="http://www.w3.org/2000/svg" xmlns:xlink="http://www.w3.org/1999/xlink" x="0px" y="0px"
	 viewBox="0 0 283.5 283.5" style="enable-background:new 0 0 283.5 283.5;" xml:space="preserve">
<style type="text/css">
	.st0{opacity:0.5;}
</style>
<path class="st0" d="M238.1,45.2H45.5c-6.3,0-11.5,5.2-11.5,11.6v110.3c0,6.4,5.2,11.6,11.5,11.6h192.6c6.3,0,11.5-5.2,11.5-11.6
	V56.9C249.6,50.5,244.4,45.2,238.1,45.2z M46.6,169.4c-2.5,0-4.5-2-4.5-4.5c0-2.5,2-4.5,4.5-4.5c2.5,0,4.5,2,4.5,4.5
	C51.1,167.4,49.1,169.4,46.6,169.4z M46.6,62.8c-2.5,0-4.5-2-4.5-4.5c0-2.5,2-4.5,4.5-4.5c2.5,0,4.5,2,4.5,4.5
	C51.1,60.8,49.1,62.8,46.6,62.8z M68.7,90.9c-2.8,0-5.1-2.3-5.1-5.1c0-2.8,2.3-5.1,5.1-5.1c2.8,0,5.1,2.3,5.1,5.1
	C73.8,88.6,71.5,90.9,68.7,90.9z M185.9,130.4c0,1.6-1.3,2.8-2.8,2.8H97.2c-1.5,0-2.8-1.3-2.8-2.8V87.9c0-1.6,1.3-2.8,2.8-2.8h85.9
	c1.5,0,2.8,1.3,2.8,2.8V130.4z M212.2,142.5c-3.1,0-5.7-2.5-5.7-5.7c0-3.1,2.5-5.7,5.7-5.7s5.7,2.5,5.7,5.7
	C217.9,139.9,215.3,142.5,212.2,142.5z M212.2,116.6c-3.1,0-5.7-2.5-5.7-5.7c0-3.1,2.5-5.7,5.7-5.7s5.7,2.5,5.7,5.7
	C217.9,114,215.3,116.6,212.2,116.6z M212.2,90.7c-3.1,0-5.7-2.5-5.7-5.7c0-3.1,2.5-5.7,5.7-5.7s5.7,2.5,5.7,5.7
	C217.9,88.2,215.3,90.7,212.2,90.7z M237.3,169.4c-2.5,0-4.5-2-4.5-4.5c0-2.5,2-4.5,4.5-4.5c2.5,0,4.5,2,4.5,4.5
	C241.8,167.4,239.8,169.4,237.3,169.4z M237.3,62.8c-2.5,0-4.5-2-4.5-4.5c0-2.5,2-4.5,4.5-4.5c2.5,0,4.5,2,4.5,4.5
	C241.8,60.8,239.8,62.8,237.3,62.8z"/>
</svg>
